PathFileType	4	(X/Y/Z)	C:\Users\ebm\Documents\Erivelton\Erivelton2\wc7.trc
DataRate	CameraRate	NumFrames	NumMarkers	Units	OrigDataRate	OrigDataStartFrame	OrigNumFrames
150.00	150.00	      10	28	mm	150.00	985	      1125
Frame#	Time	IJ			PX			C7			T8			RAC			RAS			RPS			RAI			RPI			RLE			RME			RRS			RUS			R3M			R5M			LAC			LAS			LPS			LAI			LPI			LLE			LME			LRS			LUS			L3M			L5M			RW			LW			V_mid_elbow_r			V_mid_elbow_l			V_mid_wrist_r			V_mid_wrist_l			V_mid_trunk_low			V_mid_trunk_upp			
		X1	Y1	Z1	X2	Y2	Z2	X3	Y3	Z3	X4	Y4	Z4	X5	Y5	Z5	X6	Y6	Z6	X7	Y7	Z7	X8	Y8	Z8	X9	Y9	Z9	X10	Y10	Z10	X11	Y11	Z11	X12	Y12	Z12	X13	Y13	Z13	X14	Y14	Z14	X15	Y15	Z15	X16	Y16	Z16	X17	Y17	Z17	X18	Y18	Z18	X19	Y19	Z19	X20	Y20	Z20	X21	Y21	Z21	X22	Y22	Z22	X23	Y23	Z23	X24	Y24	Z24	X25	Y25	Z25	X26	Y26	Z26	X27	Y27	Z27	X28	Y28	Z28	

985	6.560				4266.48975	833.90961	131.36191	4182.41064	1121.39978	102.93577	4079.81982	995.22687	121.26162	4255.46826	1054.39453	311.18701	4268.16113	866.29248	373.73578	4224.23145	878.10376	394.56488	4269.21045	792.74860	401.57294	4222.45898	803.03137	424.63736	4226.60010	737.31946	436.18665	4183.39844	715.88379	375.31253				4337.71533	508.26352	458.02017				4341.67139	428.80615	464.39755				4208.78662	880.42200	-155.71721	4161.06348	878.54456	-150.19987	4217.83838	804.31964	-179.46512	4163.37109	797.59058	-172.83975				4158.32861	698.09839	-143.84837							4374.53027	415.51474	-196.83961				4127.03711	292.69699	438.93085	4139.81885	292.03015	-189.16325	
986	6.567				4275.94922	833.76782	131.55188	4192.29297	1121.29431	102.34965	4089.60449	995.24084	121.01249	4264.55078	1054.95129	311.08096	4276.21436	867.45660	374.73981	4231.74316	879.31409	395.17236	4276.18213	793.74554	403.44656	4229.20459	804.37073	425.73312	4233.16113	738.67041	437.70541	4190.10791	717.16528	376.43671				4343.91504	509.25882	458.86786				4348.54248	429.73734	464.71954				4218.01270	881.01947	-156.40335	4169.92676	878.48499	-150.13562	4226.40771	804.20374	-179.93761	4171.90527	797.59589	-172.90536				4167.05518	698.08838	-143.91457							4383.27295	415.37408	-196.85335				4137.08105	292.61203	439.20169	4148.89160	291.91287	-188.84340	
987	6.573				4285.44678	833.73712	131.78781	4201.97852	1121.20203	102.05577	4099.10205	995.15637	120.93882	4273.58691	1055.43274	310.95676	4283.81348	868.42023	376.15799	4239.10889	880.52521	395.86624	4282.86865	794.83167	405.35547	4235.84814	805.78223	426.97971	4239.48096	739.91370	439.09973	4196.87451	718.40973	377.52002				4350.12500	510.32462	459.63876				4355.37207	430.47308	465.19659				4226.62891	880.62225	-156.65915	4178.82910	878.59192	-150.19456	4234.62891	804.05927	-180.42007	4180.38672	797.36731	-172.76918				4175.58301	698.13000	-144.11813							4391.96826	415.36328	-197.12503				4147.16504	292.73059	439.44684	4158.05566	292.12964	-188.62459	
988	6.580				4294.90625	833.68701	131.92931	4211.57275	1121.02222	101.74236	4108.58203	995.09235	120.77623	4282.67139	1055.94080	310.81516	4291.36865	869.28778	377.49756	4245.75635	881.75500	397.09885	4289.59375	795.94006	407.26865	4242.40527	807.18549	428.23676	4245.93164	741.19421	440.65173	4203.50635	719.62964	378.66519				4356.11865	511.27878	460.23572				4362.30225	431.33624	465.81363				4235.08545	880.52112	-156.99171	4187.21338	878.20074	-149.85510	4242.96387	803.86725	-180.84189	4188.57715	797.25574	-172.57011				4184.31201	697.85931	-143.94188							4400.51074	415.10434	-197.12685				4156.97021	292.85623	439.65292	4166.93018	292.37396	-188.37445	
989	6.587				4304.32959	833.41461	132.00015	4221.28125	1120.82239	101.32136	4118.15186	995.15686	120.62316	4291.89648	1056.39636	310.77261	4298.58301	869.96765	378.97931	4253.10938	882.79437	397.74915	4296.31348	796.96991	409.29327	4249.11328	808.56049	429.48102	4252.36035	742.33472	442.26495	4209.77881	720.89453	380.30646				4362.35596	512.20282	460.76996				4369.33301	432.42624	466.36957				4243.50049	880.12726	-157.05559	4195.76367	877.93365	-149.69275	4250.97754	803.73718	-181.39647	4196.92578	796.98669	-172.40219				4192.89502	697.80035	-143.80243							4409.24658	415.18777	-197.35497				4166.73389	293.08716	439.82477	4175.87109	292.57175	-188.18388	
990	6.593				4313.58984	833.21716	131.98581	4230.90332	1120.66528	101.05276	4127.82178	995.15350	120.43153	4300.90771	1056.56311	310.69171	4306.03467	870.76495	380.36856	4260.56494	883.85095	398.47299	4303.03857	797.92969	411.26672	4255.65820	809.83936	430.74670	4258.65527	743.66083	443.76428	4216.10303	722.14978	381.68170				4368.77246	513.15826	461.21970				4374.62012	432.94836	465.87354				4251.97705	879.97937	-157.42088	4204.25049	877.61829	-149.52917	4259.31250	803.34204	-181.67578	4205.31055	796.55084	-172.18715				4201.44971	697.64227	-143.53358							4418.16602	415.10867	-197.68578				4176.22998	293.31268	440.06058	4184.63037	292.82184	-188.02832	
991	6.600				4323.08057	832.98651	131.99985	4240.61865	1120.40430	100.76685	4137.20508	995.13037	120.25748	4310.12891	1056.78271	310.55777	4313.44873	871.51642	381.84882	4268.03857	884.87878	399.17245	4309.80127	798.82672	413.09946	4262.27148	811.06030	431.94934	4265.13330	744.87842	445.40521	4222.58545	723.29913	383.26373				4375.35938	514.23065	461.74072				4381.30615	433.93518	465.88367				4260.05420	879.41327	-157.49643	4212.55078	877.19513	-149.16209	4267.19629	803.14679	-181.94481	4213.27051	796.22632	-172.01907				4209.94336	697.26355	-143.34401							4427.09424	414.99850	-197.82266				4185.73340	293.49817	440.23846	4193.47217	293.02557	-187.90334	
992	6.607				4332.40674	832.78699	131.91389	4250.30811	1120.34302	100.49165	4146.63525	994.97711	120.25426	4319.45996	1057.02649	310.42307	4321.01270	872.15344	382.99957	4275.60596	885.82721	399.93259	4316.43115	799.67889	414.69559	4269.06445	812.28564	433.13477	4271.53320	745.92120	446.94266	4228.78369	724.34375	384.87778				4382.11084	515.40515	462.26956				4388.91992	435.37091	466.19571				4268.67285	879.37280	-157.87999	4220.90869	876.71558	-149.05122	4275.59131	802.60797	-182.07059	4221.73633	795.80475	-171.78200				4218.52539	696.82349	-142.95821							4435.65479	414.59677	-197.85678				4195.17285	293.58765	440.46872	4202.43213	293.09085	-187.71104	
993	6.613				4341.76074	832.58997	131.68518	4260.05420	1120.23035	100.23222	4156.26904	995.00232	120.27693	4328.74463	1057.05139	310.17352	4328.42627	872.53101	384.16452	4283.15088	886.73724	400.58060	4323.25098	800.31604	416.07135	4275.86230	813.44531	434.21518	4277.87012	746.99890	448.49075	4235.23730	725.27911	386.16058				4389.13135	516.81274	462.86978				4396.69629	436.74823	466.47855				4276.92334	878.96906	-158.10800	4229.20947	876.26105	-148.78494	4283.83398	802.18152	-182.18123	4229.95117	795.31470	-171.63982				4227.05420	696.34949	-142.57422							4444.33252	414.53433	-197.81429				4204.67285	293.66763	440.57306	4211.14697	293.08090	-187.56917	
994	6.620				4351.12598	832.39355	131.46040	4269.55957	1120.26038	99.91116	4165.76416	995.18103	120.19769	4338.12891	1057.16235	310.06036	4335.97949	872.80316	384.99051	4290.77344	887.63409	401.24030	4329.99756	801.02979	417.31143	4283.47900	814.37396	435.64551	4284.03955	747.90009	449.99335	4241.53809	726.42145	387.57892				4396.32617	518.28442	463.52634				4403.98682	438.32675	466.91553				4285.26172	878.52338	-158.14465	4237.66064	875.82721	-148.59938	4291.85059	801.84863	-182.36098	4238.23682	795.02338	-171.43782													4453.02832	414.51743	-197.97316				4214.25049	293.83948	440.69186	4219.87061	293.07980	-187.43797	
